<?xml version="1.0" encoding="UTF-8"?>
<svg width="109px" height="109px" viewBox="0 0 109 109" version="1.1" xmlns="http://www.w3.org/2000/svg" xmlns:xlink="http://www.w3.org/1999/xlink">
    <title>error</title>
    <g id="logo" stroke="none" stroke-width="1" fill="none" fill-rule="evenodd">
        <g id="不可签到" transform="translate(-320.000000, -465.000000)" fill="#FF8F1F" fill-rule="nonzero">
            <g id="error" transform="translate(320.636364, 465.636364)">
                <path d="M54,0 C24.212093,0 0,24.212093 0,54 C0,83.787907 24.212093,108 54,108 C83.787907,108 108,83.787907 108,54 C108,24.212093 83.787907,0 54,0 Z M54,83.5744186 C51.8651163,83.5744186 50.1446512,81.8413953 50.1446512,79.7190698 C50.1446512,77.5967442 51.8651163,75.8511628 54,75.8511628 C56.1348837,75.8511628 57.8553488,77.584186 57.8553488,79.7065116 C57.8553488,81.8288372 56.1348837,83.5744186 54,83.5744186 Z M57.8553488,64.2851163 C57.8553488,66.42 56.1223256,68.1404651 54,68.1404651 C51.8776744,68.1404651 50.1446512,66.4074419 50.1446512,64.2851163 L50.1446512,28.2809302 C50.1446512,26.1460465 51.8776744,24.4255814 54,24.4255814 C56.1223256,24.4255814 57.8553488,26.1586047 57.8553488,28.2809302 L57.8553488,64.2851163 Z" id="形状"></path>
            </g>
        </g>
    </g>
</svg>