<?xml version="1.0" encoding="UTF-8"?>
<svg width="108px" height="108px" viewBox="0 0 108 108" version="1.1" xmlns="http://www.w3.org/2000/svg" xmlns:xlink="http://www.w3.org/1999/xlink">
    <title>成功</title>
    <g id="logo" stroke="none" stroke-width="1" fill="none" fill-rule="evenodd">
        <g id="成功" fill="#31AB3B" fill-rule="nonzero">
            <path d="M54,0 L54,0 C24.1766016,0 -3.03739484e-15,24.1766016 -3.03739484e-15,54 C-3.03739484e-15,83.8233984 24.1766016,108 54,108 C83.8233984,108 108,83.8233984 108,54 L108,54 C108,24.1766039 83.8233984,0 54,0 L54,0 Z M82.4040024,41.2200352 L49.3560024,74.2320703 L49.3560022,74.2320704 C48.4069976,75.2024789 47.113146,75.7588361 45.7560058,75.7800669 L45.7560061,75.7800669 C44.4005111,75.7511666 43.1094365,75.1960052 42.1560096,74.2320704 L25.5960447,57.9240704 L25.5960447,57.9240704 C23.5183525,55.8662591 23.5022264,52.5137661 25.5600443,50.4360739 C27.6178557,48.3583818 30.9703486,48.3422556 33.0480408,50.4000736 C33.0480409,50.4000736 33.0480409,50.4000737 33.048041,50.4000737 L45.6480761,63.0001089 L74.952041,33.696144 L74.9520408,33.6961442 C76.9711134,31.6383329 80.2760927,31.6069243 82.3339041,33.6260054 C82.3575051,33.6491622 82.3808858,33.6725427 82.4040426,33.6961439 L82.4040427,33.6961441 C84.4817349,35.7516984 84.4996857,39.1023562 82.4441317,41.1800589 C82.4308403,41.1934935 82.417477,41.2068567 82.4040425,41.2201481 L82.4040024,41.2200352 Z" id="形状"></path>
        </g>
    </g>
</svg>